<?xml version="1.0" encoding="utf-8"?>
<!-- Generator: Adobe Illustrator 26.0.3, SVG Export Plug-In . SVG Version: 6.00 Build 0)  -->
<svg version="1.1" id="Layer_1" xmlns="http://www.w3.org/2000/svg" xmlns:xlink="http://www.w3.org/1999/xlink" x="0px" y="0px"
	 viewBox="0 0 566.9 566.9" style="enable-background:new 0 0 566.9 566.9;" xml:space="preserve">
<style type="text/css">
	.st0{fill:#FFD600;}
</style>
<rect class="st0" width="566.9" height="566.9"/>
<g>
	<path d="M281.5,417.9c-10.5,19.4-22.2,27.7-39.2,27.7c-26.9,0-46.4-26.5-46.4-63c0-17.8,4.7-33.8,13.2-45.2
		c8.5-11.3,19.9-17.3,33.2-17.3c11.1,0,26.5,4.2,36.7,24.3l2.5,4.9l32.9-28.4l-1.4-2.6c-15.6-29.5-38.7-43.8-70.7-43.8
		c-24.7,0-47.6,11-64.4,31c-16.7,20-25.9,47.3-25.9,77c0,29.7,9.2,57.1,25.9,77.2c16.8,20.1,39.7,31.2,64.4,31.2
		c32,0,57.4-16.3,73.7-47.1l1.4-2.7l-33.4-27.9L281.5,417.9z"/>
	<polygon points="445.6,276.9 445.6,381 382.6,381 382.6,276.9 339.6,276.9 339.6,488.2 382.6,488.2 382.6,426.3 445.6,426.3 
		445.6,488.2 488.5,488.2 488.5,276.9 	"/>
</g>
</svg>
